<svg width="15" height="15" viewBox="0 0 15 15" fill="none" xmlns="http://www.w3.org/2000/svg">
<path d="M14.4228 7.06545C15.5301 6.22787 14.9378 4.46286 13.5494 4.46286H11.0371C10.4022 4.46286 9.84141 4.04922 9.65388 3.44264L8.90498 1.02026C8.48443 -0.340027 6.55899 -0.340027 6.13845 1.02026L5.38955 3.44264C5.20202 4.04922 4.64118 4.46286 4.00628 4.46286H1.45063C0.0666948 4.46286 -0.52848 6.21845 0.570136 7.06008L2.75897 8.73689C3.23899 9.10462 3.43993 9.73194 3.26289 10.3101L2.4676 12.9076C2.05517 14.2546 3.61421 15.3375 4.73252 14.4808L6.64122 13.0186C7.16075 12.6206 7.88268 12.6206 8.40221 13.0186L10.294 14.4679C11.414 15.3258 12.9745 14.2387 12.5578 12.8909L11.7515 10.2828C11.5715 9.70058 11.7753 9.068 12.2613 8.70039L14.4228 7.06545Z" fill="#FFAD33"/>
</svg>