<svg width="80" height="80" viewBox="0 0 80 80" fill="none" xmlns="http://www.w3.org/2000/svg">
<path opacity="0.3" d="M80 40C80 62.0914 62.0914 80 40 80C17.9086 80 0 62.0914 0 40C0 17.9086 17.9086 0 40 0C62.0914 0 80 17.9086 80 40ZM10.9071 40C10.9071 56.0675 23.9325 69.0929 40 69.0929C56.0675 69.0929 69.0929 56.0675 69.0929 40C69.0929 23.9325 56.0675 10.9071 40 10.9071C23.9325 10.9071 10.9071 23.9325 10.9071 40Z" fill="#2F2E30"/>
<circle cx="40" cy="40" r="29" fill="black"/>
<path d="M40.4278 38.1456V38.6456L40.9278 38.6456C41.5916 38.6457 42.239 38.8514 42.781 39.2346C43.3229 39.6178 43.7327 40.1595 43.954 40.7851C43.9727 40.8381 43.9808 40.8941 43.9778 40.9502C43.9748 41.0062 43.9608 41.0611 43.9366 41.1117C43.9124 41.1624 43.8784 41.2077 43.8367 41.2452C43.795 41.2828 43.7463 41.3117 43.6933 41.3304C43.6404 41.3491 43.5844 41.3571 43.5283 41.3542C43.4723 41.3512 43.4174 41.3372 43.3667 41.313C43.2645 41.2641 43.1858 41.1766 43.1481 41.0697L43.148 41.0695C42.9856 40.6104 42.6849 40.213 42.2873 39.9319C41.8896 39.6509 41.4146 39.5 40.9277 39.5002L40.4278 39.5003V40.0002V43.7092V44.2092H40.9278C41.7789 44.2092 42.5952 44.5473 43.197 45.1491C43.7988 45.7509 44.1369 46.5672 44.1369 47.4183C44.1369 48.2694 43.7988 49.0856 43.197 49.6874C42.5952 50.2892 41.7789 50.6273 40.9278 50.6273H40.4278V51.1273V51.5546H39.5733V51.1273V50.6273L39.0733 50.6273C38.4096 50.6273 37.7621 50.4215 37.2202 50.0383C36.6782 49.6551 36.2684 49.1134 36.0471 48.4876L36.0472 48.4875L36.0422 48.4744C36.0216 48.4211 36.012 48.3642 36.0138 48.3071C36.0156 48.25 36.0289 48.1939 36.0528 48.142C36.0767 48.0901 36.1107 48.0435 36.1529 48.005L35.817 47.6367L36.1529 48.005C36.1952 47.9665 36.2447 47.9369 36.2985 47.9179C36.3524 47.8988 36.4095 47.8908 36.4665 47.8942C36.5236 47.8977 36.5793 47.9125 36.6305 47.9379C36.6817 47.9632 36.7273 47.9986 36.7646 48.0419C36.8019 48.0852 36.8301 48.1355 36.8476 48.1899L36.8499 48.1969L36.8523 48.2039C37.1768 49.1186 38.0484 49.7728 39.0733 49.7728H39.5733V49.2728V45.5637V45.0637H39.0733C38.2222 45.0637 37.406 44.7256 36.8042 44.1238C36.2024 43.522 35.8643 42.7058 35.8643 41.8547C35.8643 41.0036 36.2024 40.1874 36.8042 39.5856C37.406 38.9837 38.2222 38.6456 39.0733 38.6456H39.5733V38.1456V37.7184H40.4278V38.1456ZM39.5733 40.0002V39.5002H39.0733C38.4488 39.5002 37.85 39.7482 37.4084 40.1898C36.9668 40.6314 36.7188 41.2302 36.7188 41.8547C36.7188 42.4792 36.9668 43.078 37.4084 43.5196C37.85 43.9612 38.4488 44.2092 39.0733 44.2092H39.5733V43.7092V40.0002ZM40.4278 49.2728V49.7728H40.9278C41.5523 49.7728 42.1512 49.5247 42.5927 49.0832C43.0343 48.6416 43.2824 48.0427 43.2824 47.4183C43.2824 46.7938 43.0343 46.1949 42.5927 45.7534C42.1512 45.3118 41.5523 45.0637 40.9278 45.0637H40.4278V45.5637V49.2728Z" fill="#FAFAFA" stroke="#FAFAFA"/>
<path d="M32.7057 32.5777L33.0219 32.6998C37.3707 34.3798 42.6083 34.3797 46.957 32.698L47.2695 32.5772L47.5001 32.8203C49.3981 34.8211 50.9858 37.0948 52.2105 39.5658L52.2115 39.5677C53.4873 42.1703 54.2037 44.8133 54.0867 47.1301L54.0867 47.1301C53.9723 49.3912 53.0716 51.3572 51.0218 52.806L51.0218 52.806C48.9129 54.296 45.4467 55.3336 40.0354 55.3336C34.6198 55.3336 31.1397 54.3141 29.0132 52.8421L29.0129 52.842C26.9494 51.412 26.0376 49.472 25.9101 47.2374L32.7057 32.5777ZM32.7057 32.5777L32.4752 32.8262M32.7057 32.5777L32.4752 32.8262M32.4752 32.8262C30.6573 34.7856 28.9657 37.1897 27.751 39.6929L27.7509 39.6929M32.4752 32.8262L27.7509 39.6929M27.7509 39.6929C26.4804 42.3123 25.7784 44.9432 25.9101 47.2372L27.7509 39.6929ZM49.8428 26.1814C50.2832 26.3992 50.6642 26.6076 50.9775 26.7943L47.8457 31.3725L47.6141 31.7111L47.901 32.0044C49.8394 33.9861 51.6697 36.5163 52.9805 39.1919C54.2935 41.8721 55.0679 44.6624 54.941 47.1735C54.8151 49.6637 53.8054 51.8863 51.5163 53.5035C49.2051 55.1363 45.5382 56.1881 40.0364 56.1881C34.5332 56.1881 30.8544 55.1551 28.528 53.5441C26.2245 51.9489 25.1991 49.7543 25.058 47.2856C24.9157 44.7951 25.6758 42.0153 26.9835 39.3201C28.2889 36.6299 30.1229 34.0598 32.0812 31.9993L32.3589 31.7071L32.1323 31.3738L29.0225 26.7979C29.1798 26.7052 29.3536 26.6075 29.543 26.5066L29.543 26.5066L29.5447 26.5056C29.7353 26.4032 29.9408 26.2977 30.1614 26.1901L30.3573 26.0946C32.6034 25.024 36.1645 23.8094 40.0364 23.8094C43.9384 23.8094 47.4975 25.0428 49.7165 26.12C49.7165 26.12 49.7165 26.1201 49.7165 26.1201L49.8412 26.1806C49.8417 26.1808 49.8422 26.1811 49.8428 26.1814ZM46.2245 32.0592L46.3779 32.0047L46.4698 31.8703L49.2117 27.8618L49.7968 27.0064L48.7631 27.0808C46.1696 27.2675 43.1003 27.8748 40.1554 28.7274C38.1714 29.3006 35.9387 29.2193 33.8339 28.8311C33.3046 28.7329 32.779 28.6161 32.258 28.4809L30.9726 28.1471L31.7188 29.2457L33.4991 31.8671L33.591 32.0024L33.745 32.0572C37.6692 33.4543 42.2996 33.4542 46.2245 32.0592ZM31.58 26.4803L30.3004 27.0235L31.6328 27.4198C32.3897 27.645 33.1821 27.8413 33.9877 27.9905L33.9881 27.9905C36.023 28.3653 38.1079 28.4298 39.9168 27.9058L39.9175 27.9056C41.8859 27.3322 43.888 26.8812 45.9122 26.5552L45.9768 25.5828C44.2353 25.0585 42.1905 24.664 40.0354 24.664C36.7536 24.664 33.7063 25.5779 31.58 26.4803Z" fill="#FAFAFA" stroke="#FAFAFA"/>
</svg>